<?xml version="1.0" encoding="UTF-8"?>
<svg width="115px" height="100px" viewBox="0 0 115 100" version="1.1" xmlns="http://www.w3.org/2000/svg" xmlns:xlink="http://www.w3.org/1999/xlink">
    <!-- Generator: Sketch 48.2 (47327) - http://www.bohemiancoding.com/sketch -->
    <title>Artboard</title>
    <desc>Created with Sketch.</desc>
    <defs></defs>
    <g id="Page-1" stroke="none" stroke-width="1" fill="none" fill-rule="evenodd">
        <g id="Artboard" fill="#FFFFFF" fill-rule="nonzero">
            <g id="logo-white" transform="translate(-1.000000, -1.000000)">
                <path d="M58.237,76.466 C39.399,76.466 20.5606667,76.4643333 1.722,76.461 C1.534,76.461 1.244,76.582 1.175,76.366 C1.12072861,76.0766543 1.11464667,75.7803288 1.157,75.489 C1.157,75.358 1.28,75.369 1.371,75.366 C1.495,75.366 1.619,75.366 1.743,75.366 L114.727,75.366 C115.34,75.366 115.532,75.656 115.359,76.302 C115.328,76.418 115.277,76.466 115.171,76.466 L114.752,76.466 L58.237,76.466 Z" id="Path_23"></path>
                <path d="M58.275,100.86 C39.423,100.86 20.5713333,100.86 1.72,100.86 C1.533,100.86 1.244,100.981 1.175,100.76 C1.1218999,100.470493 1.11649526,100.174251 1.159,99.883 C1.159,99.783 1.264,99.783 1.341,99.783 C1.48,99.783 1.62,99.783 1.76,99.783 L114.73,99.783 C115.33,99.783 115.543,100.11 115.358,100.714 C115.341188,100.808718 115.253568,100.873995 115.158,100.863 L58.275,100.863 L58.275,100.86 Z" id="Path_24"></path>
                <g id="Group_12" transform="translate(0.918000, 0.078000)">
                    <g id="Group_11">
                        <circle id="Ellipse_3" cx="88.565" cy="14.533" r="1"></circle>
                        <path d="M88.521,0.922 C73.273,0.922 63.081,9.922 63.081,23.236 C63.081,35.731 73.273,43.904 84.481,43.904 L87.045,43.904 L66.571,69.804 L87.69,69.804 L104.68,47.304 C110.655,39.041 114.05,32.431 114.05,22.972 C114.05,9.738 103.857,0.922 88.521,0.922 Z M99.236,21.157 C97.6026815,22.2415378 96.0478295,23.4398399 94.583,24.743 C91.7004462,27.2936609 90.1808297,31.0484647 90.478,34.886 C90.508,35.486 90.578,36.086 90.612,36.679 C90.6340084,36.9609328 90.7733196,37.2206902 90.996,37.395 C91.358,37.73 91.714,38.076 92.127,38.468 C89.7392033,38.9244844 87.2773385,38.8103855 84.942,38.135 C83.927,37.84 82.927,37.496 81.906,37.217 C80.7702604,36.9195004 79.7991125,36.1832265 79.206,35.17 C78.006149,33.2535869 77.1455539,31.144723 76.662,28.936 C77.3405295,29.8713983 78.6219926,30.1320348 79.612,29.536 C81.5322441,28.7898661 82.8172955,26.9643836 82.872,24.905 C82.995108,23.1624209 82.673373,21.4171377 81.937,19.833 C81.965,20.172 82.001,20.51 82.023,20.849 C82.045,21.188 82.066,21.527 82.078,21.867 C82.1980777,23.0059632 81.9759557,24.15487 81.44,25.167 C81.367,25.286 81.315,25.419 81.234,25.531 C79.812,27.517 78.187,27.902 76.748,25.593 C75.9454187,24.177224 75.5398234,22.5710803 75.574,20.944 C75.4358569,19.6649688 75.706096,18.3750319 76.346,17.259 C76.7667279,16.4527392 77.5195792,15.8712894 78.406,15.668 C78.962234,15.5092214 79.5263241,15.3793805 80.096,15.279 C80.3717104,15.2206079 80.6174841,15.065625 80.789,14.842 C81.972099,13.5906664 83.3536772,12.5432483 84.878,11.742 C86.1241309,11.0824698 87.6194356,11.0986535 88.851,11.785 C90.0266456,12.5318512 91.5415864,12.4741354 92.657,11.64 C93.806,10.918 95.005,10.275 96.181,9.594 C96.8422719,9.18215166 97.5601945,8.86917646 98.312,8.665 C99.0091302,8.51853258 99.7344171,8.71130129 100.266834,9.1845612 C100.799252,9.6578211 101.075725,10.3555056 101.012,11.065 C101.012612,11.2651258 100.973171,11.4633507 100.896,11.648 C100.547282,12.4170294 100.555698,13.3007518 100.919,14.063 C101.274678,14.9332193 101.492299,15.8536381 101.564,16.791 C101.57685,18.5465201 100.700846,20.1894036 99.236,21.157 Z" id="Path_25"></path>
                        <polygon id="Path_26" points="60.755 1.842 38.165 1.842 19.059 26.915 19.059 1.842 0.14 1.842 0.14 69.8 19.059 69.8 19.059 42.985 19.149 42.985 39.72 69.8 62.31 69.8 34.762 34.9"></polygon>
                    </g>
                </g>
                <g id="Group_13" transform="translate(0.918000, 81.078000)">
                    <path d="M9.255,9.1 L11.919,9.894 C11.6527725,11.1941181 10.9601697,12.3681643 9.951,13.23 C8.91904722,13.9988954 7.65956689,14.4005352 6.373,14.371 C4.70003408,14.4507695 3.0734307,13.8079224 1.907,12.606 C0.66727862,11.2396165 0.0127668088,9.44159396 0.084,7.598 C-0.0694611067,5.69049751 0.523520584,3.79790359 1.738,2.319 C2.90243927,1.04000477 4.56377153,0.328057331 6.293,0.367 C7.77837185,0.279506262 9.23810758,0.782739461 10.354,1.767 C11.0457035,2.44456573 11.5397284,3.29778716 11.783,4.235 L9.088,4.929 C8.80786851,3.57476414 7.58102327,2.62786732 6.2,2.7 C5.26389915,2.6868451 4.37250135,3.09961783 3.777,3.822 C3.07985477,4.85458095 2.76929992,6.09998734 2.9,7.339 C2.80504435,8.62977 3.15360096,9.91427873 3.888,10.98 C4.48983954,11.6837952 5.38297467,12.0702053 6.308,12.027 C6.99850754,12.0285326 7.66403916,11.7688216 8.171,11.3 C8.75053953,10.6959856 9.12916124,9.92756515 9.255,9.1 Z" id="Path_27"></path>
                    <path d="M17.288,7.567 C17.230878,6.37989029 17.4208891,5.19385276 17.846,4.084 C18.141137,3.39071246 18.5572909,2.75547675 19.075,2.208 C19.5590994,1.6775844 20.1468877,1.2521441 20.802,0.958 C21.7222479,0.568336134 22.7116545,0.368346065 23.711,0.37 C25.4958421,0.257917593 27.2455158,0.901751068 28.532,2.144 C30.9764167,5.11425123 31.056744,9.37573894 28.726,12.436 C27.4918639,13.719072 25.7735485,14.4217221 23.994,14.371 C22.2065158,14.4884595 20.4518632,13.8498763 19.158,12.611 C17.8877096,11.2458571 17.2146125,9.4302947 17.288,7.567 Z M20.102,7.426 C20.0350271,8.68090055 20.4354779,9.91609897 21.226,10.893 C21.9305973,11.6362374 22.9144325,12.0501631 23.9384463,12.0341985 C24.9624601,12.0182339 25.932914,11.5738404 26.614,10.809 C27.3675457,9.78697555 27.718204,8.52318178 27.599,7.259 C27.6761235,6.01338375 27.2908426,4.78311976 26.517,3.804 C25.8165138,3.04804184 24.8148956,2.6446072 23.786,2.704 C22.7484943,2.68304895 21.755416,3.12462067 21.076,3.909 C20.3288032,4.92120988 19.9812836,6.17349121 20.1,7.426 L20.102,7.426 Z" id="Path_28"></path>
                    <polygon id="Path_29" points="36.321 14.235 36.085 0.698 38.736 0.65 44.451 9.624 44.293 0.553 46.824 0.509 47.06 14.049 44.326 14.096 38.697 5.327 38.849 14.19"></polygon>
                    <polygon id="Path_30" points="53.6 14.235 53.364 0.698 56.014 0.65 61.73 9.624 61.571 0.553 64.103 0.509 64.339 14.049 61.605 14.096 55.976 5.327 56.128 14.19"></polygon>
                    <polygon id="Path_31" points="70.859 14.224 70.623 0.686 80.652 0.512 80.691 2.802 73.391 2.929 73.444 5.929 80.23 5.809 80.272 8.102 73.483 8.219 73.546 11.885 81.102 11.755 81.141 14.045"></polygon>
                    <path d="M95.66,9.1 L98.325,9.894 C98.0584108,11.1939788 97.3658729,12.3679151 96.357,13.23 C95.3249405,13.9986876 94.0655336,14.4003039 92.779,14.371 C91.1059907,14.4510311 89.4792835,13.808143 88.313,12.606 C87.0725426,11.2399983 86.4176077,9.44179996 86.489,7.598 C86.3360683,5.69055692 86.9289893,3.7981569 88.143,2.319 C89.3075174,1.04011461 90.9687972,0.328189695 92.698,0.367 C94.1833869,0.279396426 95.6431634,0.782643658 96.759,1.767 C97.4510281,2.44447686 97.9453982,3.29769754 98.189,4.235 L95.489,4.929 C95.208814,3.57437144 93.9813927,2.62735795 92.6,2.7 C91.6638992,2.6868451 90.7725013,3.09961783 90.177,3.822 C89.480411,4.85482866 89.1699073,6.10002978 89.3,7.339 C89.2055295,8.62972335 89.5540432,9.91407374 90.288,10.98 C90.8900589,11.6840799 91.7836301,12.070519 92.709,12.027 C93.3992554,12.0287766 94.0645605,11.7690146 94.571,11.3 C95.1527447,10.6969083 95.5332089,9.92829378 95.66,9.1 Z" id="Path_32"></path>
                    <polygon id="Path_33" points="107.421 14.163 107.221 2.915 103.204 2.985 103.165 0.695 113.921 0.506 113.963 2.799 109.955 2.868 110.155 14.115"></polygon>
                </g>
            </g>
        </g>
    </g>
</svg>