<?xml version="1.0" encoding="UTF-8"?>
<svg width="777px" height="678px" viewBox="0 0 777 678" version="1.1" xmlns="http://www.w3.org/2000/svg" xmlns:xlink="http://www.w3.org/1999/xlink">
    <!-- Generator: Sketch 48.2 (47327) - http://www.bohemiancoding.com/sketch -->
    <title>Artboard</title>
    <desc>Created with Sketch.</desc>
    <defs>
        <linearGradient x1="51.8919476%" y1="8806.66734%" x2="46.6429567%" y2="-15367.5807%" id="linearGradient-1">
            <stop stop-color="#53386E" offset="0%"></stop>
            <stop stop-color="#CC4E7C" offset="100%"></stop>
        </linearGradient>
        <linearGradient x1="51.4366151%" y1="6627.04141%" x2="46.1868624%" y2="-17604.3192%" id="linearGradient-2">
            <stop stop-color="#53386E" offset="0%"></stop>
            <stop stop-color="#CC4E7C" offset="100%"></stop>
        </linearGradient>
        <linearGradient x1="322.258184%" y1="12214.5523%" x2="-139.850849%" y2="-8473.28068%" id="linearGradient-3">
            <stop stop-color="#53386E" offset="0%"></stop>
            <stop stop-color="#CC4E7C" offset="100%"></stop>
        </linearGradient>
        <linearGradient x1="56.5610355%" y1="248.99561%" x2="44.7895693%" y2="-140.839336%" id="linearGradient-4">
            <stop stop-color="#53386E" offset="0%"></stop>
            <stop stop-color="#CC4E7C" offset="100%"></stop>
        </linearGradient>
        <linearGradient x1="53.7343298%" y1="252.897461%" x2="44.0825623%" y2="-142.182639%" id="linearGradient-5">
            <stop stop-color="#53386E" offset="0%"></stop>
            <stop stop-color="#CC4E7C" offset="100%"></stop>
        </linearGradient>
        <linearGradient x1="65.906745%" y1="663.202231%" x2="15.254247%" y2="-1252.82212%" id="linearGradient-6">
            <stop stop-color="#53386E" offset="0%"></stop>
            <stop stop-color="#CC4E7C" offset="100%"></stop>
        </linearGradient>
        <linearGradient x1="64.6176873%" y1="660.9512%" x2="18.9214843%" y2="-1257.12246%" id="linearGradient-7">
            <stop stop-color="#53386E" offset="0%"></stop>
            <stop stop-color="#CC4E7C" offset="100%"></stop>
        </linearGradient>
        <linearGradient x1="67.2495302%" y1="669.975725%" x2="12.6425503%" y2="-1285.47981%" id="linearGradient-8">
            <stop stop-color="#53386E" offset="0%"></stop>
            <stop stop-color="#CC4E7C" offset="100%"></stop>
        </linearGradient>
        <linearGradient x1="67.1213423%" y1="667.164984%" x2="12.5142282%" y2="-1288.29066%" id="linearGradient-9">
            <stop stop-color="#53386E" offset="0%"></stop>
            <stop stop-color="#CC4E7C" offset="100%"></stop>
        </linearGradient>
        <linearGradient x1="67.5938375%" y1="665.005376%" x2="10.6158263%" y2="-1292.5529%" id="linearGradient-10">
            <stop stop-color="#53386E" offset="0%"></stop>
            <stop stop-color="#CC4E7C" offset="100%"></stop>
        </linearGradient>
        <linearGradient x1="65.5299855%" y1="649.429915%" x2="14.877612%" y2="-1266.59454%" id="linearGradient-11">
            <stop stop-color="#53386E" offset="0%"></stop>
            <stop stop-color="#CC4E7C" offset="100%"></stop>
        </linearGradient>
        <linearGradient x1="68.4277322%" y1="662.507883%" x2="12.8508197%" y2="-1303.50626%" id="linearGradient-12">
            <stop stop-color="#53386E" offset="0%"></stop>
            <stop stop-color="#CC4E7C" offset="100%"></stop>
        </linearGradient>
    </defs>
    <g id="Page-1" stroke="none" stroke-width="1" fill="none" fill-rule="evenodd">
        <g id="Artboard" fill-rule="nonzero">
            <g id="logo">
                <path d="M388.2,512.1 C260.5,512.1 132.7,512.1 5,512.1 C3.7,512.1 1.8,512.9 1.3,511.5 C0.7,509.7 1.1,507.5 1.2,505.6 C1.2,504.7 2,504.8 2.7,504.8 C3.5,504.8 4.4,504.8 5.2,504.8 C260.6,504.8 515.9,504.8 771.3,504.8 C775.5,504.8 776.8,506.8 775.6,511.1 C775.4,511.9 775,512.2 774.3,512.2 C773.4,512.2 772.4,512.2 771.5,512.2 C643.7,512.1 515.9,512.1 388.2,512.1 Z" id="Shape" fill="url(#linearGradient-1)"></path>
                <path d="M388.4,677.5 C260.6,677.5 132.7,677.5 4.9,677.5 C3.6,677.5 1.7,678.3 1.2,676.8 C0.6,675 1,672.8 1.1,670.9 C1.1,670.2 1.8,670.2 2.3,670.2 C3.2,670.2 4.2,670.2 5.1,670.2 C260.4,670.2 515.8,670.2 771.1,670.2 C775.2,670.2 776.6,672.4 775.4,676.5 C775.1,677.3 774.7,677.5 774,677.5 C773.1,677.5 772.1,677.5 771.2,677.5 C643.7,677.5 516.1,677.5 388.4,677.5 Z" id="Shape" fill="url(#linearGradient-2)"></path>
                <g id="Group">
                    <path d="M600,88.2 C597.5,88.2 595.6,90.2 595.6,92.6 C595.6,95 597.6,97 600,97 C602.4,97 604.4,95 604.4,92.6 C604.5,90.2 602.5,88.2 600,88.2 Z" id="Shape" fill="url(#linearGradient-3)"></path>
                    <path d="M599.7,0.3 C496.3,0.3 427.2,61.3 427.2,151.6 C427.2,236.3 496.3,291.7 572.3,291.7 L589.7,291.7 L450.9,467.3 L594.1,467.3 L709.3,314.7 C749.8,258.7 772.8,213.8 772.8,149.7 C772.9,60.1 703.7,0.3 599.7,0.3 Z M672.4,137.5 C661.4,145 650.7,152.8 640.8,161.8 C620.6,180.3 611.6,203.4 613,230.6 C613.2,234.7 613.7,238.7 613.9,242.8 C614,244.9 615,246.3 616.5,247.7 C619,250 621.4,252.3 624.2,255 C607.4,258 591.4,257.4 575.5,252.7 C568.6,250.7 561.8,248.4 554.9,246.5 C546.9,244.3 540.8,239.6 536.6,232.6 C528.7,219.7 522.7,206 519.3,190.3 C525.2,197.9 531.8,197.3 539.3,194.4 C553.7,188.7 559.8,177.3 561.4,163 C562.8,151.1 559.6,139.7 555.1,128.6 C555.3,130.9 555.5,133.2 555.7,135.5 C555.9,137.8 556,140.1 556.1,142.4 C556.4,150.2 556,157.9 551.8,164.8 C551.3,165.6 551,166.5 550.4,167.3 C540.8,180.8 529.7,183.4 520,167.7 C514,158.1 512.4,147.3 512,136.2 C511.7,127.4 512.2,119 517.2,111.2 C520.7,105.9 524.6,101.6 531.2,100.4 C535,99.7 538.7,98.1 542.7,97.8 C544.8,97.6 546,96.1 547.4,94.8 C555.9,86.9 564.2,78.7 575.1,73.8 C584.2,69.7 593.4,69.1 602,74.1 C611.1,79.4 619.3,78.5 627.8,73.1 C635.6,68.2 643.7,63.8 651.7,59.2 C656.3,56.5 661,54.2 666.2,52.9 C675.9,50.6 685.6,59.1 684.5,69.2 C684.4,70.5 684.3,72.1 683.7,73.2 C680.5,78.8 682.3,84.1 683.9,89.6 C685.6,95.7 688.5,101.6 688.3,108.1 C687.8,120.4 682.7,130.4 672.4,137.5 Z" id="Shape" fill="url(#linearGradient-4)"></path>
                    <polygon id="Shape" fill="url(#linearGradient-5)" points="411.5 6.6 258.3 6.6 128.7 176.6 128.7 6.6 0.5 6.6 0.5 467.4 128.7 467.4 128.7 285.6 129.4 285.6 268.8 467.4 422 467.4 235.2 230.7"></polygon>
                </g>
                <g id="Group" transform="translate(0.000000, 545.000000)">
                    <path d="M62.3,60 L80.4,65.4 C77.8,75.5 73.4,83 67.1,88 C60.8,93 52.7,95.6 42.8,95.7 C30.6,95.9 20.5,91.9 12.5,83.7 C4.5,75.5 0.4,64.2 0.1,49.7 C-0.2,34.4 3.6,22.5 11.3,13.9 C19,5.3 29.3,0.9 42.2,0.7 C53.4,0.5 62.6,3.7 69.7,10.2 C74,14 77.2,19.6 79.4,26.9 L61.1,31.6 C59.9,26.9 57.6,23.1 54.1,20.5 C50.6,17.8 46.4,16.5 41.5,16.6 C34.7,16.7 29.2,19.3 25.1,24.2 C20.9,29.2 19,37.1 19.2,48 C19.4,59.6 21.6,67.8 25.9,72.7 C30.2,77.6 35.6,79.9 42.3,79.8 C47.2,79.7 51.4,78.1 54.9,74.9 C58.4,71.8 60.8,66.8 62.3,60 Z" id="Shape" fill="url(#linearGradient-6)"></path>
                    <path d="M116.7,49.6 C116.5,40.2 117.8,32.4 120.5,26 C122.5,21.3 125.3,17 128.8,13.3 C132.3,9.5 136.3,6.7 140.5,4.8 C146.2,2.3 152.8,0.9 160.2,0.8 C173.7,0.6 184.6,4.6 192.9,12.8 C201.2,21 205.4,32.6 205.7,47.6 C205.9,62.4 202.1,74.1 194.2,82.6 C186.3,91.1 175.6,95.5 162.1,95.7 C148.4,95.9 137.5,92 129.3,83.8 C121.2,75.6 117,64.2 116.7,49.6 Z M135.8,48.7 C136,59.1 138.5,66.9 143.4,72.2 C148.3,77.5 154.4,80.1 161.8,79.9 C169.2,79.7 175.2,77 179.9,71.6 C184.5,66.2 186.8,58.2 186.6,47.5 C186.4,37 184,29.2 179.3,24.1 C174.6,19 168.4,16.5 160.8,16.7 C153.1,16.8 147,19.6 142.4,24.9 C137.8,30.2 135.6,38.1 135.8,48.7 Z" id="Shape" fill="url(#linearGradient-7)"></path>
                    <polygon id="Shape" fill="url(#linearGradient-8)" points="245.8 94.8 244.2 3 262.2 2.7 301 63.5 299.9 2 317.1 1.7 318.7 93.5 300.2 93.8 262 34.3 263 94.4"></polygon>
                    <polygon id="Shape" fill="url(#linearGradient-9)" points="363 94.8 361.4 3 379.4 2.7 418.2 63.5 417.1 2 434.3 1.7 435.9 93.5 417.4 93.8 379.2 34.3 380.2 94.4"></polygon>
                    <polygon id="Shape" fill="url(#linearGradient-10)" points="480 94.8 478.4 3 546.4 1.8 546.7 17.3 497.2 18.2 497.6 38.5 543.6 37.7 543.9 53.2 497.9 54 498.3 78.9 549.5 78 549.8 93.5"></polygon>
                    <path d="M648.2,60 L666.3,65.4 C663.7,75.5 659.3,83 653,88 C646.7,93 638.6,95.6 628.7,95.7 C616.5,95.9 606.4,91.9 598.4,83.7 C590.4,75.5 586.3,64.2 586,49.7 C585.7,34.4 589.5,22.5 597.2,13.9 C604.9,5.3 615.2,0.9 628.1,0.7 C639.3,0.5 648.5,3.7 655.6,10.2 C659.9,14 663.1,19.6 665.3,26.9 L647,31.6 C645.8,26.9 643.5,23.1 640,20.5 C636.5,17.8 632.3,16.5 627.4,16.6 C620.6,16.7 615.1,19.3 611,24.2 C606.8,29.2 604.9,37.1 605.1,48 C605.3,59.6 607.5,67.8 611.8,72.7 C616.1,77.6 621.5,79.9 628.2,79.8 C633.1,79.7 637.3,78.1 640.8,74.9 C644.3,71.8 646.7,66.8 648.2,60 Z" id="Shape" fill="url(#linearGradient-11)"></path>
                    <polygon id="Shape" fill="url(#linearGradient-12)" points="727.9 94.4 726.6 18.1 699.4 18.6 699.1 3.1 772 1.8 772.3 17.3 745.1 17.8 746.4 94.1"></polygon>
                </g>
            </g>
        </g>
    </g>
</svg>