<svg xmlns="http://www.w3.org/2000/svg" width="114.422" height="99.889" viewBox="0 0 114.422 99.889">
  <g id="Group_14" data-name="Group 14" transform="translate(-389.082 -596.922)">
    <path id="Path_23" data-name="Path 23" d="M446.319,672.388q-28.257,0-56.515-.005c-.188,0-.478.121-.547-.095a2.672,2.672,0,0,1-.018-.877c0-.131.123-.12.214-.123.124,0,.248,0,.372,0H502.809c.613,0,.805.29.632.936-.031.116-.082.164-.188.164l-.419,0Z" fill="#fff"/>
    <path id="Path_24" data-name="Path 24" d="M446.357,696.782q-28.278,0-56.555,0c-.187,0-.476.121-.545-.1a2.7,2.7,0,0,1-.016-.877c0-.1.105-.1.182-.1.139,0,.279,0,.419,0h112.97c.6,0,.813.327.628.931a.182.182,0,0,1-.2.149H446.357Z" fill="#fff"/>
    <g id="Group_12" data-name="Group 12">
      <g id="Group_11" data-name="Group 11">
        <circle id="Ellipse_3" data-name="Ellipse 3" cx="0.654" cy="0.654" r="0.654" transform="translate(476.911 609.879)" fill="#fff"/>
        <path id="Path_25" data-name="Path 25" d="M477.521,596.922c-15.248,0-25.44,9-25.44,22.314,0,12.495,10.192,20.668,21.4,20.668h2.564l-20.474,25.9H476.69l16.99-22.5c5.975-8.263,9.37-14.873,9.37-24.332C503.05,605.738,492.857,596.922,477.521,596.922Zm10.715,20.235a41.728,41.728,0,0,0-4.653,3.586,12.278,12.278,0,0,0-4.105,10.143c.03.6.1,1.2.134,1.793a1.009,1.009,0,0,0,.384.716c.362.335.718.681,1.131,1.073a15.432,15.432,0,0,1-7.185-.333c-1.015-.295-2.015-.639-3.036-.918a4.429,4.429,0,0,1-2.7-2.047,19.678,19.678,0,0,1-2.544-6.234,2.226,2.226,0,0,0,2.95.6,5.114,5.114,0,0,0,3.26-4.631,10.309,10.309,0,0,0-.935-5.072c.028.339.064.677.086,1.016s.043.678.055,1.018a5.761,5.761,0,0,1-.638,3.3c-.073.119-.125.252-.206.364-1.422,1.986-3.047,2.371-4.486.062a9.042,9.042,0,0,1-1.174-4.649,6.093,6.093,0,0,1,.772-3.685,3.107,3.107,0,0,1,2.06-1.591,16.74,16.74,0,0,1,1.69-.389,1.182,1.182,0,0,0,.693-.437,15.645,15.645,0,0,1,4.089-3.1,4.162,4.162,0,0,1,3.973.043,3.353,3.353,0,0,0,3.806-.145c1.149-.722,2.348-1.365,3.524-2.046a7.994,7.994,0,0,1,2.131-.929,2.247,2.247,0,0,1,2.7,2.4,1.5,1.5,0,0,1-.116.583,2.864,2.864,0,0,0,.023,2.415,9.031,9.031,0,0,1,.645,2.728A5.187,5.187,0,0,1,488.236,617.157Z" fill="#fff"/>
        <path id="Path_26" data-name="Path 26" d="M449.755,597.842h-22.59l-19.106,25.073V597.842H389.14V665.8h18.919V638.985h.09L428.72,665.8h22.59l-27.548-34.9Z" fill="#fff"/>
      </g>
    </g>
    <g id="Group_13" data-name="Group 13">
      <path id="Path_27" data-name="Path 27" d="M398.255,686.1l2.664.794a5.959,5.959,0,0,1-1.968,3.336,5.767,5.767,0,0,1-3.578,1.141,5.836,5.836,0,0,1-4.466-1.765,7.048,7.048,0,0,1-1.823-5.008,7.385,7.385,0,0,1,1.654-5.279,5.978,5.978,0,0,1,4.555-1.952,5.638,5.638,0,0,1,4.061,1.4,5.329,5.329,0,0,1,1.429,2.468l-2.695.694A2.8,2.8,0,0,0,395.2,679.7a3.084,3.084,0,0,0-2.423,1.122,5.293,5.293,0,0,0-.877,3.517,5.682,5.682,0,0,0,.988,3.641,3,3,0,0,0,2.42,1.047,2.735,2.735,0,0,0,1.863-.727A4.059,4.059,0,0,0,398.255,686.1Z" fill="#fff"/>
      <path id="Path_28" data-name="Path 28" d="M406.288,684.567a8.584,8.584,0,0,1,.558-3.483,6.351,6.351,0,0,1,1.229-1.876,5.249,5.249,0,0,1,1.727-1.25,7.429,7.429,0,0,1,2.909-.588,6.366,6.366,0,0,1,4.821,1.774,8.291,8.291,0,0,1,.194,10.292,6.316,6.316,0,0,1-4.732,1.935,6.387,6.387,0,0,1-4.836-1.76A7,7,0,0,1,406.288,684.567Zm2.814-.141a5.081,5.081,0,0,0,1.124,3.467,3.659,3.659,0,0,0,5.388-.084,5.165,5.165,0,0,0,.985-3.55,5.067,5.067,0,0,0-1.082-3.455,3.452,3.452,0,0,0-2.731-1.1,3.492,3.492,0,0,0-2.71,1.205A5.11,5.11,0,0,0,409.1,684.426Z" fill="#fff"/>
      <path id="Path_29" data-name="Path 29" d="M425.321,691.235l-.236-13.537,2.651-.048,5.715,8.974-.158-9.071,2.531-.044.236,13.54-2.734.047-5.629-8.769.152,8.863Z" fill="#fff"/>
      <path id="Path_30" data-name="Path 30" d="M442.6,691.235l-.236-13.537,2.65-.048,5.716,8.974-.159-9.071,2.532-.044.236,13.54-2.734.047-5.629-8.769.152,8.863Z" fill="#fff"/>
      <path id="Path_31" data-name="Path 31" d="M459.859,691.224l-.236-13.538,10.029-.174.039,2.29-7.3.127.053,3,6.786-.12.042,2.293-6.789.117.063,3.666,7.556-.13.039,2.29Z" fill="#fff"/>
      <path id="Path_32" data-name="Path 32" d="M484.66,686.1l2.665.794a5.964,5.964,0,0,1-1.968,3.336,5.77,5.77,0,0,1-3.578,1.141,5.834,5.834,0,0,1-4.466-1.765,7.044,7.044,0,0,1-1.824-5.008,7.39,7.39,0,0,1,1.654-5.279,5.979,5.979,0,0,1,4.555-1.952,5.637,5.637,0,0,1,4.061,1.4,5.33,5.33,0,0,1,1.43,2.468l-2.7.694A2.8,2.8,0,0,0,481.6,679.7a3.084,3.084,0,0,0-2.423,1.122,5.3,5.3,0,0,0-.877,3.517,5.688,5.688,0,0,0,.988,3.641,3,3,0,0,0,2.421,1.047,2.73,2.73,0,0,0,1.862-.727A4.052,4.052,0,0,0,484.66,686.1Z" fill="#fff"/>
      <path id="Path_33" data-name="Path 33" d="M496.421,691.163l-.2-11.248-4.017.07-.039-2.29,10.756-.189.042,2.293-4.008.069.2,11.247Z" fill="#fff"/>
    </g>
  </g>
</svg>
