<?xml version="1.0" encoding="utf-8"?>
<!-- Generator: Adobe Illustrator 21.0.0, SVG Export Plug-In . SVG Version: 6.00 Build 0)  -->
<svg version="1.1" id="Layer_1" xmlns="http://www.w3.org/2000/svg" xmlns:xlink="http://www.w3.org/1999/xlink" x="0px" y="0px"
	 viewBox="0 0 2000 2000" style="enable-background:new 0 0 2000 2000;" xml:space="preserve">
<g>
	<path d="M1000.2,1173.1c-127.7,0-255.5,0-383.2,0c-1.3,0-3.2,0.8-3.7-0.6c-0.6-1.8-0.2-4-0.1-5.9c0-0.9,0.8-0.8,1.5-0.8
		c0.8,0,1.7,0,2.5,0c255.4,0,510.7,0,766.1,0c4.2,0,5.5,2,4.3,6.3c-0.2,0.8-0.6,1.1-1.3,1.1c-0.9,0-1.9,0-2.8,0
		C1255.7,1173.1,1127.9,1173.1,1000.2,1173.1z"/>
	<path d="M1000.4,1338.5c-127.8,0-255.7,0-383.5,0c-1.3,0-3.2,0.8-3.7-0.7c-0.6-1.8-0.2-4-0.1-5.9c0-0.7,0.7-0.7,1.2-0.7
		c0.9,0,1.9,0,2.8,0c255.3,0,510.7,0,766,0c4.1,0,5.5,2.2,4.3,6.3c-0.3,0.8-0.7,1-1.4,1c-0.9,0-1.9,0-2.8,0
		C1255.7,1338.5,1128.1,1338.5,1000.4,1338.5z"/>
	<g>
		<g>
			<path d="M1212,749.2c-2.5,0-4.4,2-4.4,4.4c0,2.4,2,4.4,4.4,4.4c2.4,0,4.4-2,4.4-4.4C1216.5,751.2,1214.5,749.2,1212,749.2z"/>
			<path d="M1211.7,661.3c-103.4,0-172.5,61-172.5,151.3c0,84.7,69.1,140.1,145.1,140.1h17.4l-138.8,175.6h143.2l115.2-152.6
				c40.5-56,63.5-100.9,63.5-165C1384.9,721.1,1315.7,661.3,1211.7,661.3z M1284.4,798.5c-11,7.5-21.7,15.3-31.6,24.3
				c-20.2,18.5-29.2,41.6-27.8,68.8c0.2,4.1,0.7,8.1,0.9,12.2c0.1,2.1,1.1,3.5,2.6,4.9c2.5,2.3,4.9,4.6,7.7,7.3
				c-16.8,3-32.8,2.4-48.7-2.3c-6.9-2-13.7-4.3-20.6-6.2c-8-2.2-14.1-6.9-18.3-13.9c-7.9-12.9-13.9-26.6-17.3-42.3
				c5.9,7.6,12.5,7,20,4.1c14.4-5.7,20.5-17.1,22.1-31.4c1.4-11.9-1.8-23.3-6.3-34.4c0.2,2.3,0.4,4.6,0.6,6.9
				c0.2,2.3,0.3,4.6,0.4,6.9c0.3,7.8-0.1,15.5-4.3,22.4c-0.5,0.8-0.8,1.7-1.4,2.5c-9.6,13.5-20.7,16.1-30.4,0.4
				c-6-9.6-7.6-20.4-8-31.5c-0.3-8.8,0.2-17.2,5.2-25c3.5-5.3,7.4-9.6,14-10.8c3.8-0.7,7.5-2.3,11.5-2.6c2.1-0.2,3.3-1.7,4.7-3
				c8.5-7.9,16.8-16.1,27.7-21c9.1-4.1,18.3-4.7,26.9,0.3c9.1,5.3,17.3,4.4,25.8-1c7.8-4.9,15.9-9.3,23.9-13.9
				c4.6-2.7,9.3-5,14.5-6.3c9.7-2.3,19.4,6.2,18.3,16.3c-0.1,1.3-0.2,2.9-0.8,4c-3.2,5.6-1.4,10.9,0.2,16.4c1.7,6.1,4.6,12,4.4,18.5
				C1299.8,781.4,1294.7,791.4,1284.4,798.5z"/>
			<polygon points="1023.5,667.6 870.3,667.6 740.7,837.6 740.7,667.6 612.5,667.6 612.5,1128.4 740.7,1128.4 740.7,946.6 
				741.4,946.6 880.8,1128.4 1034,1128.4 847.2,891.7 			"/>
		</g>
	</g>
	<g>
		<path d="M674.3,1266l18.1,5.4c-2.6,10.1-7,17.6-13.3,22.6s-14.4,7.6-24.3,7.7c-12.2,0.2-22.3-3.8-30.3-12s-12.1-19.5-12.4-34
			c-0.3-15.3,3.5-27.2,11.2-35.8c7.7-8.6,18-13,30.9-13.2c11.2-0.2,20.4,3,27.5,9.5c4.3,3.8,7.5,9.4,9.7,16.7l-18.3,4.7
			c-1.2-4.7-3.5-8.5-7-11.1c-3.5-2.7-7.7-4-12.6-3.9c-6.8,0.1-12.3,2.7-16.4,7.6c-4.2,5-6.1,12.9-5.9,23.8
			c0.2,11.6,2.4,19.8,6.7,24.7c4.3,4.9,9.7,7.2,16.4,7.1c4.9-0.1,9.1-1.7,12.6-4.9C670.4,1277.8,672.8,1272.8,674.3,1266z"/>
		<path d="M728.7,1255.6c-0.2-9.4,1.1-17.2,3.8-23.6c2-4.7,4.8-9,8.3-12.7c3.5-3.8,7.5-6.6,11.7-8.5c5.7-2.5,12.3-3.9,19.7-4
			c13.5-0.2,24.4,3.8,32.7,12c8.3,8.2,12.5,19.8,12.8,34.8c0.2,14.8-3.6,26.5-11.5,35c-7.9,8.5-18.6,12.9-32.1,13.1
			c-13.7,0.2-24.6-3.7-32.8-11.9C733.2,1281.6,729,1270.2,728.7,1255.6z M747.8,1254.7c0.2,10.4,2.7,18.2,7.6,23.5
			c4.9,5.3,11,7.9,18.4,7.7s13.4-2.9,18.1-8.3c4.6-5.4,6.9-13.4,6.7-24.1c-0.2-10.5-2.6-18.3-7.3-23.4c-4.7-5.1-10.9-7.6-18.5-7.4
			c-7.7,0.1-13.8,2.9-18.4,8.2C749.8,1236.2,747.6,1244.1,747.8,1254.7z"/>
		<path d="M857.8,1300.8l-1.6-91.8l18-0.3l38.8,60.8l-1.1-61.5l17.2-0.3l1.6,91.8l-18.5,0.3l-38.2-59.5l1,60.1L857.8,1300.8z"/>
		<path d="M975,1300.8l-1.6-91.8l18-0.3l38.8,60.8l-1.1-61.5l17.2-0.3l1.6,91.8l-18.5,0.3l-38.2-59.5l1,60.1L975,1300.8z"/>
		<path d="M1092,1300.8l-1.6-91.8l68-1.2l0.3,15.5l-49.5,0.9l0.4,20.3l46-0.8l0.3,15.5l-46,0.8l0.4,24.9l51.2-0.9l0.3,15.5
			L1092,1300.8z"/>
		<path d="M1260.2,1266l18.1,5.4c-2.6,10.1-7,17.6-13.3,22.6s-14.4,7.6-24.3,7.7c-12.2,0.2-22.3-3.8-30.3-12s-12.1-19.5-12.4-34
			c-0.3-15.3,3.5-27.2,11.2-35.8c7.7-8.6,18-13,30.9-13.2c11.2-0.2,20.4,3,27.5,9.5c4.3,3.8,7.5,9.4,9.7,16.7l-18.3,4.7
			c-1.2-4.7-3.5-8.5-7-11.1c-3.5-2.7-7.7-4-12.6-3.9c-6.8,0.1-12.3,2.7-16.4,7.6c-4.2,5-6.1,12.9-5.9,23.8
			c0.2,11.6,2.4,19.8,6.7,24.7c4.3,4.9,9.7,7.2,16.4,7.1c4.9-0.1,9.1-1.7,12.6-4.9C1256.3,1277.8,1258.7,1272.8,1260.2,1266z"/>
		<path d="M1339.9,1300.4l-1.3-76.3l-27.2,0.5l-0.3-15.5l72.9-1.3l0.3,15.5l-27.2,0.5l1.3,76.3L1339.9,1300.4z"/>
	</g>
</g>
</svg>
