<svg id="dog" xmlns="http://www.w3.org/2000/svg" width="89" height="89" viewBox="0 0 89 89">
  <g id="dog-2" data-name="dog" transform="translate(21 25)">
    <g id="Group_14" data-name="Group 14" transform="translate(34.783 4.348)">
      <g id="Group_13" data-name="Group 13">
        <circle id="Ellipse_5" data-name="Ellipse 5" cx="1.304" cy="1.304" r="1.304" transform="translate(0 0)" fill="#c0c4d6"/>
      </g>
    </g>
    <g id="Group_16" data-name="Group 16">
      <g id="Group_15" data-name="Group 15">
        <path id="Path_4" data-name="Path 4" d="M45.624,39.1c-2.014,0-3.743.142-5.413-1.528L38.05,35.411a5.218,5.218,0,0,0-3.689-1.528h-6.1a5.238,5.238,0,0,0-3.7,1.528l-.032.032-4.071,4.071a4.525,4.525,0,0,0-1.326,3.2V44.08a5.617,5.617,0,0,0,4.414,5.4,5.454,5.454,0,0,0,.8.06v.347c-4.286,2.47-13.08,7.451-14.821,9.179a9.014,9.014,0,0,0-2.571,6.126A8.129,8.129,0,0,0,7.7,68.679l-5.093-.013a2.609,2.609,0,1,0,0,5.218H24.322a1.733,1.733,0,0,0,1.563-2.518,5.242,5.242,0,0,0-2.5-2.271c.6-1.187.944-2.168,2.443-2.168h2v5.218a1.739,1.739,0,0,0,1.739,1.739h6.47a1.746,1.746,0,0,0,1.522-2.606,5.232,5.232,0,0,0-3.87-2.546l.387-3.094a8.628,8.628,0,0,0,.708-14.323V47.8H40a6.833,6.833,0,0,0,5.268-2.983c.415-.691,2.1-3.2,2.1-3.98A1.741,1.741,0,0,0,45.624,39.1ZM24.34,47.777a3.532,3.532,0,0,1-3.471-3.653v-1.41a2.771,2.771,0,0,1,.816-1.971l4.071-4.071a3.553,3.553,0,0,1,2.069-1.007v8.652a3.465,3.465,0,0,1-3.485,3.46ZM2.609,72.144a.87.87,0,0,1,0-1.739l6.147.016a6.269,6.269,0,0,0,1.735,1.723ZM43.777,43.918A4.9,4.9,0,0,1,40,46.057H35.564a2.605,2.605,0,0,1-2.449-1.739H31.3a4.343,4.343,0,0,0,1.739,2.653V52.18c2.505,1.894,3.926,4.051,3.372,7.279-.44,2.564-1.991,3.923-3.963,5.133-.418,3.343-.544,4.353-.707,5.65,1.754.218,3.334.222,4.29,1.9h-6.47v-8.7H27.826V65.18h-2a3.867,3.867,0,0,0-1.512.343A8.725,8.725,0,0,0,21.8,59.038l-1.23,1.23a7.059,7.059,0,0,1,.951,8.656L21,69.955c1.353.587,2.649.953,3.322,2.189H15.647a6.937,6.937,0,0,1-4.124-12.519c1.914-1.426,12.5-7.546,14.564-8.737V49.216a5.2,5.2,0,0,0,3.48-4.9v-8.7h4.8a3.477,3.477,0,0,1,2.459,1.019L38.981,38.8a6.893,6.893,0,0,0,4.6,2.007,2.44,2.44,0,0,0,1.179,1.463Z" transform="translate(0 -33.883)" fill="#989dba"/>
      </g>
    </g>
  </g>
  <g id="Ellipse_6" data-name="Ellipse 6" fill="none">
    <path d="M44.5,0A44.5,44.5,0,1,1,0,44.5,44.5,44.5,0,0,1,44.5,0Z" stroke="none"/>
    <path d="M 44.5 2 C 38.76165390014648 2 33.19602584838867 3.1234130859375 27.95769500732422 5.339042663574219 C 22.89706420898438 7.479507446289062 18.35173034667969 10.544189453125 14.44795989990234 14.44795989990234 C 10.544189453125 18.35173034667969 7.479507446289062 22.89706420898438 5.339042663574219 27.95769500732422 C 3.1234130859375 33.19602584838867 2 38.76165390014648 2 44.5 C 2 50.23834609985352 3.1234130859375 55.80397415161133 5.339042663574219 61.04230499267578 C 7.479507446289062 66.10293579101562 10.544189453125 70.64826965332031 14.44795989990234 74.55204010009766 C 18.35173034667969 78.455810546875 22.89706420898438 81.52049255371094 27.95769500732422 83.66095733642578 C 33.19602584838867 85.8765869140625 38.76165390014648 87 44.5 87 C 50.23834609985352 87 55.80397415161133 85.8765869140625 61.04230499267578 83.66095733642578 C 66.10293579101562 81.52049255371094 70.64826965332031 78.455810546875 74.55204010009766 74.55204010009766 C 78.455810546875 70.64826965332031 81.52049255371094 66.10293579101562 83.66095733642578 61.04230499267578 C 85.8765869140625 55.80397415161133 87 50.23834609985352 87 44.5 C 87 38.76165390014648 85.8765869140625 33.19602584838867 83.66095733642578 27.95769500732422 C 81.52049255371094 22.89706420898438 78.455810546875 18.35173034667969 74.55204010009766 14.44795989990234 C 70.64826965332031 10.544189453125 66.10293579101562 7.479507446289062 61.04230499267578 5.339042663574219 C 55.80397415161133 3.1234130859375 50.23834609985352 2 44.5 2 M 44.5 0 C 69.07666778564453 0 89 19.92333221435547 89 44.5 C 89 69.07666778564453 69.07666778564453 89 44.5 89 C 19.92333221435547 89 0 69.07666778564453 0 44.5 C 0 19.92333221435547 19.92333221435547 0 44.5 0 Z" stroke="none" fill="#989dba"/>
  </g>
</svg>
