<svg xmlns="http://www.w3.org/2000/svg" xmlns:xlink="http://www.w3.org/1999/xlink" width="31.621" height="33.621" viewBox="0 0 31.621 33.621">
  <defs>
    <filter id="Line_5" x="9.379" y="11.379" width="22.242" height="22.243" filterUnits="userSpaceOnUse">
      <feOffset dy="2" input="SourceAlpha"/>
      <feGaussianBlur stdDeviation="2" result="blur"/>
      <feFlood flood-color="#824173" flood-opacity="0.439"/>
      <feComposite operator="in" in2="blur"/>
      <feComposite in="SourceGraphic"/>
    </filter>
  </defs>
  <g id="ic_ZOOM" transform="translate(-323 -466)">
    <g transform="matrix(1, 0, 0, 1, 323, 466)" filter="url(#Line_5)">
      <line id="Line_5-2" data-name="Line 5" x2="6" y2="6" transform="translate(17.5 17.5)" fill="none" stroke="#824173" stroke-linecap="round" stroke-width="3"/>
    </g>
    <path id="ic_loupe_24px" d="M13,7H11v4H7v2h4v4h2V13h4V11H13ZM12,2a10,10,0,0,0,0,20h8a2.006,2.006,0,0,0,2-2V12A10.016,10.016,0,0,0,12,2Zm0,18a8,8,0,1,1,8-8A8.011,8.011,0,0,1,12,20Z" transform="translate(321 464)" fill="#824173"/>
  </g>
</svg>
