<svg xmlns="http://www.w3.org/2000/svg" xmlns:xlink="http://www.w3.org/1999/xlink" width="224.3" height="395.42" viewBox="0 0 224.3 395.42">
  <defs>
    <clipPath id="clip-path">
      <path id="_Caminho_de_recorte_" data-name="&lt;Caminho de recorte&gt;" d="M363.15,168.95,256,256,148.85,168.95V64h214.3Z" fill="#daa748" stroke="#824173" stroke-linecap="round" stroke-linejoin="round" stroke-width="10"/>
    </clipPath>
  </defs>
  <g id="iconfinder_medal_award_trophy_premium_win_first_place_6_4640275" transform="translate(-143.85 -59)">
    <path id="_Caminho_de_recorte_2" data-name="&lt;Caminho de recorte&gt;" d="M363.15,168.95,256,256,148.85,168.95V64h214.3Z" fill="#f3f7fb"/>
    <g id="Group_1" data-name="Group 1" clip-path="url(#clip-path)">
      <path id="Path_1" data-name="Path 1" d="M189.56,64H148.85V308.06l40.71-37.79Z" fill="#824173"/>
      <path id="Path_2" data-name="Path 2" d="M256,265.25l20.35,26.3V64h-40.7V291.55Z" fill="#824173"/>
      <path id="Path_3" data-name="Path 3" d="M322.44,64V270.27l40.71,37.79V64Z" fill="#824173"/>
    </g>
    <path id="_Caminho_de_recorte_3" data-name="&lt;Caminho de recorte&gt;" d="M363.15,168.95,256,256,148.85,168.95V64h214.3Z" fill="none" stroke="#824173" stroke-linecap="round" stroke-linejoin="round" stroke-width="10"/>
    <path id="Path_5" data-name="Path 5" d="M96.71,0A96.71,96.71,0,1,1,0,96.71,96.71,96.71,0,0,1,96.71,0Z" transform="translate(159.29 256)" fill="#f3f7fb" stroke="#824173" stroke-width="10"/>
    <path id="Path_4" data-name="Path 4" d="M273.38,310.1v97.25h-26.2V332.13H232.77v-22Z" fill="#fff" stroke="#824173" stroke-linecap="round" stroke-linejoin="round" stroke-width="5"/>
  </g>
</svg>
