<svg xmlns="http://www.w3.org/2000/svg" width="44" height="44" viewBox="0 0 44 44">
  <g id="Group_17" data-name="Group 17" transform="translate(-997 -487)">
    <g id="ic_favourite" transform="translate(555 7)">
      <g id="Rectangle_25" data-name="Rectangle 25" transform="translate(442 480)" fill="#fff" stroke="#e4edf5" stroke-width="1">
        <rect width="44" height="44" rx="22" stroke="none"/>
        <rect x="0.5" y="0.5" width="43" height="43" rx="21.5" fill="none"/>
      </g>
    </g>
    <g id="iconfinder_pencil_2639884" transform="translate(936.999 426.993)">
      <circle id="Ellipse_9" data-name="Ellipse 9" cx="0.424" cy="0.424" r="0.424" transform="translate(72.001 91.493)" fill="#a04677"/>
      <path id="Path_5" data-name="Path 5" d="M73.857,555.678l-.945,2.674.537.56,2.691-.951Z" transform="translate(-0.88 -466.597)" fill="#a04677"/>
      <path id="Path_6" data-name="Path 6" d="M484.241,77.937l1.2-1.2a1.694,1.694,0,0,0,0-2.4L483.6,72.5a1.694,1.694,0,0,0-2.4,0l-1.2,1.2Z" transform="translate(-393.601 0)" fill="#a04677"/>
      <path id="Path_7" data-name="Path 7" d="M154.168,168,144,178.168l1.271.424.424,2.118,2.118.424.424,1.271L158.4,172.238Z" transform="translate(-69.459 -92.606)" fill="#a04677"/>
    </g>
  </g>
</svg>
