<svg xmlns="http://www.w3.org/2000/svg" width="89" height="89" viewBox="0 0 89 89">
  <g id="Group_18" data-name="Group 18" transform="translate(-352 -194)">
    <path id="user" d="M51.963,49.409a1.928,1.928,0,0,1-1.684-1.932V44.6A7.311,7.311,0,0,0,52.161,40.3l.1-1.585A3.111,3.111,0,0,0,53.6,36.828c.347-1.238.05-2.328-.743-2.427h-.347l.2-2.922A6.814,6.814,0,0,0,45.97,24H44.732A6.948,6.948,0,0,0,37.9,31.479l.2,2.972a.628.628,0,0,0-.3-.05c-.792.1-1.09,1.189-.743,2.427a3.137,3.137,0,0,0,1.387,1.932l.1,1.535A6.972,6.972,0,0,0,40.373,44.6v2.873a1.928,1.928,0,0,1-1.684,1.932C34.33,50.152,27,53.322,27,56.69v6.934H63.652V56.69C63.652,53.322,56.322,50.152,51.963,49.409Z" transform="translate(351 195)" fill="#8c92b4"/>
    <g id="Ellipse_6" data-name="Ellipse 6" transform="translate(352 194)" fill="none">
      <path d="M44.5,0A44.5,44.5,0,1,1,0,44.5,44.5,44.5,0,0,1,44.5,0Z" stroke="none"/>
      <path d="M 44.5 2 C 38.76165390014648 2 33.19602584838867 3.1234130859375 27.95769500732422 5.339042663574219 C 22.89706420898438 7.479507446289062 18.35173034667969 10.544189453125 14.44795989990234 14.44795989990234 C 10.544189453125 18.35173034667969 7.479507446289062 22.89706420898438 5.339042663574219 27.95769500732422 C 3.1234130859375 33.19602584838867 2 38.76165390014648 2 44.5 C 2 50.23834609985352 3.1234130859375 55.80397415161133 5.339042663574219 61.04230499267578 C 7.479507446289062 66.10293579101562 10.544189453125 70.64826965332031 14.44795989990234 74.55204010009766 C 18.35173034667969 78.455810546875 22.89706420898438 81.52049255371094 27.95769500732422 83.66095733642578 C 33.19602584838867 85.8765869140625 38.76165390014648 87 44.5 87 C 50.23834609985352 87 55.80397415161133 85.8765869140625 61.04230499267578 83.66095733642578 C 66.10293579101562 81.52049255371094 70.64826965332031 78.455810546875 74.55204010009766 74.55204010009766 C 78.455810546875 70.64826965332031 81.52049255371094 66.10293579101562 83.66095733642578 61.04230499267578 C 85.8765869140625 55.80397415161133 87 50.23834609985352 87 44.5 C 87 38.76165390014648 85.8765869140625 33.19602584838867 83.66095733642578 27.95769500732422 C 81.52049255371094 22.89706420898438 78.455810546875 18.35173034667969 74.55204010009766 14.44795989990234 C 70.64826965332031 10.544189453125 66.10293579101562 7.479507446289062 61.04230499267578 5.339042663574219 C 55.80397415161133 3.1234130859375 50.23834609985352 2 44.5 2 M 44.5 0 C 69.07666778564453 0 89 19.92333221435547 89 44.5 C 89 69.07666778564453 69.07666778564453 89 44.5 89 C 19.92333221435547 89 0 69.07666778564453 0 44.5 C 0 19.92333221435547 19.92333221435547 0 44.5 0 Z" stroke="none" fill="#989dba"/>
    </g>
  </g>
</svg>
